<svg xmlns="http://www.w3.org/2000/svg" viewBox="0 0 100 100"><circle cx="50" cy="50" r="45" fill="#374151"/><rect width="60" height="60" x="20" y="20" fill="#fff" rx="5" transform="rotate(5 50 50)"/><rect width="60" height="60" x="18" y="18" fill="#fff" rx="5" transform="rotate(-5 50 50)"/><rect width="52" height="52" x="24" y="24" fill="#fff" rx="5"/><g transform="translate(28 28)"><circle cx="10" cy="10" r="9" fill="#FFF" stroke="#EF4444" stroke-width="2"/><path fill="#EF4444" d="M10 6S8 3 5.5 5 5 12 10 15c5-3 7-8 4.5-10S10 6 10 6Z"/><circle cx="34" cy="10" r="9" fill="#FFF" stroke="#22C55E" stroke-width="2"/><path fill="none" stroke="#22C55E" stroke-width="2" d="m28 13 3-4 3 2 6-5"/><circle cx="10" cy="34" r="9" fill="#FFF" stroke="#EAB308" stroke-width="2"/><circle cx="7" cy="31" r="3" fill="#EAB308"/><circle cx="13" cy="31" r="3" fill="#EAB308"/><path fill="#EAB308" d="M4 41c0-5 12-5 12 0"/><circle cx="34" cy="34" r="9" fill="#FFF" stroke="#3B82F6" stroke-width="2"/><path fill="#3B82F6" d="m34 27-3 5 3 9 3-9Z"/></g></svg>